HIERARCHY
ROOT Hips
{
  OFFSET 99.5111 100.511 -117.406
  CHANNELS 6 Xposition Yposition Zposition Zrotation Xrotation Yrotation
  JOINT RightUpLeg
  {
    OFFSET -8.9458 -8.66707 0.101652
    CHANNELS 3 Zrotation Xrotation Yrotation
    JOINT RightLeg
    {
      OFFSET 0 -44.4227 1.3727
      CHANNELS 3 Zrotation Xrotation Yrotation
      JOINT RightFoot
      {
        OFFSET 0.253549 -42.0924 -1.46059
        CHANNELS 3 Zrotation Xrotation Yrotation
        JOINT RightToes
        {
          OFFSET 0.04 -4.41509 8.4991
          CHANNELS 3 Zrotation Xrotation Yrotation
          End Site
          {
            OFFSET -0.08 -0.137448 9.77979
          }
        }
      }
    }
  }
  JOINT Spine
  {
    OFFSET 0 11.8905 0
    CHANNELS 3 Zrotation Xrotation Yrotation
    JOINT Spine1
    {
      OFFSET 0 25.6574 0.127663
      CHANNELS 3 Zrotation Xrotation Yrotation
      JOINT HEad
      {
        OFFSET 0 8.73416 0.011341
        CHANNELS 3 Zrotation Xrotation Yrotation
        End Site
        {
          OFFSET -0.29 12.7742 2.51395
        }
      }
      JOINT LeftShoulder1
      {
        OFFSET 8.99 -0.362252 -0.22
        CHANNELS 3 Zrotation Xrotation Yrotation
        JOINT LeftArm
        {
          OFFSET 10.2827 -0.00338 0.322123
          CHANNELS 3 Zrotation Xrotation Yrotation
          JOINT LeftForeArm
          {
            OFFSET 32.7669 0.099144 -1.42434
            CHANNELS 3 Zrotation Xrotation Yrotation
            JOINT LeftHand
            {
              OFFSET 27.5643 0.085362 1.02216
              CHANNELS 3 Zrotation Xrotation Yrotation
              End Site
              {
                OFFSET 16.7443 -0.6 1.50291
              }
            }
          }
        }
      }
      JOINT RightShoulder
      {
        OFFSET -8.99 -0.362252 -0.22
        CHANNELS 3 Zrotation Xrotation Yrotation
        JOINT RightArm
        {
          OFFSET -10.2827 -0.00338 0.322123
          CHANNELS 3 Zrotation Xrotation Yrotation
          JOINT RightForeArm
          {
            OFFSET -32.8971 0.099144 -1.42434
            CHANNELS 3 Zrotation Xrotation Yrotation
            JOINT RightHand
            {
              OFFSET -27.4921 0.085362 1.02216
              CHANNELS 3 Zrotation Xrotation Yrotation
              End Site
              {
                OFFSET -16.6312 -0.6 1.50291
              }
            }
          }
        }
      }
    }
  }
  JOINT LeftUpLeg
  {
    OFFSET 8.9458 -8.66707 0.101652
    CHANNELS 3 Zrotation Xrotation Yrotation
    JOINT LeftLeg
    {
      OFFSET 0 -44.4227 1.3727
      CHANNELS 3 Zrotation Xrotation Yrotation
      JOINT LeftFoot
      {
        OFFSET -0.253549 -42.0924 -1.46059
        CHANNELS 3 Zrotation Xrotation Yrotation
        JOINT LeftToes
        {
          OFFSET -0.04 -4.41509 8.4991
          CHANNELS 3 Zrotation Xrotation Yrotation
          End Site
          {
            OFFSET 0.08 -0.047448 9.77979
          }
        }
      }
    }
  }
}
MOTION
Frames:	21
Frame Time:	0.0166667
101.21 101.433 7.35059 -3.47124 -1.60156 173.976 -6.94453 -32.8488 10.2474 23.7761 56.0692 -24.5696 -0.0519955 -4.79977 -0.18804 -14.0794 10.1085 17.3485 -1.04487 -0.695336 -4.45805 -5.03166 3.2989 -3.63924 -2.70249 7.29144 3.80468 1.59028e-015 7.95139e-016 -0 -104.022 -60.7781 -37.29 -14.5303 8.27921 9.88312 0.368473 9.90896 -0.00117925 28.1167 5.6014 12.7598 54.6891 -46.7074 16.4381 18.6229 10.4825 -11.7391 -0.369625 9.91382 0.00119887 -7.78155 -9.97143 -14.9105 -4.91536 18.8451 24.336 -1.10612 -8.55563 0.118907 2.71821 -5.87109 -1.17046 
101.16 101.403 5.30938 -3.15846 -1.92174 174.923 -6.57637 -33.4525 10.8266 22.3741 50.8814 -24.8322 -0.386847 -6.38783 -0.206843 -10.7097 11.2772 14.2703 -1.30779 -1.00501 -4.81157 -5.02592 2.53253 -3.96981 -2.00088 7.83303 3.24808 -2.20695e-032 7.95139e-016 1.59028e-015 -104.144 -59.4356 -39.4577 -14.9619 8.29373 10.1744 0.368473 9.90896 -0.00117925 30.6603 5.96315 12.6463 49.9478 -46.8515 13.2261 19.4687 10.2012 -12.0569 -0.369625 9.91382 0.00119887 -7.7309 -8.8044 -14.6216 -4.52302 18.7412 23.17 -1.16886 -9.22966 0.111218 2.25862 -6.53655 -0.76207 
101.121 101.347 3.25925 -3.05416 -2.10028 175.716 -6.44916 -33.594 12.2854 21.3556 44.6765 -27.202 -0.477869 -6.98169 -0.220673 -9.55022 9.44 12.6539 -1.57109 -1.17728 -5.25182 -5.26631 1.86706 -4.32302 -1.3029 8.1666 2.89825 -0 0 3.18055e-015 -104.282 -58.2879 -41.5921 -15.2846 8.31913 10.197 0.368473 9.90896 -0.00117925 32.9944 6.26664 12.4651 46.0774 -46.7775 10.8031 20.2224 9.99348 -12.3372 -0.369625 9.91382 0.00119887 -7.81119 -7.48185 -14.2516 -4.21215 18.5653 22.0459 -1.08573 -10.589 0.10163 1.83732 -6.06779 -0.532504 
101.108 101.238 1.18005 -3.04455 -2.28856 176.481 -6.39098 -33.356 13.7196 19.4409 37.9333 -29.3839 -0.400079 -7.10052 -0.228846 -8.86062 7.28695 11.3825 -1.80933 -1.32945 -5.79016 -5.58966 1.10853 -4.75878 -0.665676 8.53657 2.72664 9.93923e-016 7.95139e-016 -0 -104.085 -57.3793 -43.2643 -15.5897 8.36393 10.015 0.368473 9.90896 -0.00117925 35.2678 6.59434 12.3612 42.5953 -46.8374 8.72731 20.8029 9.88544 -12.5505 -0.369625 9.91382 0.00119887 -7.91248 -6.19533 -13.9753 -4.03317 18.4126 21.0902 -0.94627 -11.9592 0.0952931 1.45103 -5.63609 -0.329673 
101.128 101.043 -0.948515 -3.0927 -2.57797 177.3 -6.28901 -32.8262 14.3895 16.6883 31.0303 -30.438 -0.0700884 -7.16275 -0.225519 -6.92614 7.05927 9.37981 -2.01923 -1.53748 -6.46946 -5.94242 0.10886 -5.34251 -0.157643 9.17184 2.79859 -1.2921e-015 0 -1.59028e-015 -103.446 -56.8627 -44.2968 -15.8438 8.41664 9.68212 0.368473 9.90896 -0.00117925 37.584 7.02007 12.4575 39.2317 -47.3559 6.75266 21.0914 9.93988 -12.6528 -0.369625 9.91382 0.00119887 -8.01185 -5.0535 -13.9772 -4.00738 18.3219 20.4658 -0.762344 -12.6719 0.100988 1.19187 -6.35464 -0.0634546 
101.178 100.797 -3.12232 -3.15048 -2.93976 178.12 -6.22031 -32.0111 14.2091 13.3071 24.0397 -30.2797 0.199909 -7.00174 -0.215678 -5.49571 7.52461 8.10024 -2.17518 -1.74328 -7.20366 -6.28185 -1.0172 -6.00777 0.288841 9.90522 2.98365 -3.97569e-016 -7.95139e-016 4.77083e-015 -102.258 -56.5523 -44.5791 -16.2785 8.52964 9.07212 0.368473 9.90896 -0.00117925 39.836 7.46788 12.6135 36.0059 -48.082 4.87955 21.2072 10.0927 -12.6893 -0.369625 9.91382 0.00119887 -8.03806 -4.03838 -14.0603 -4.10491 18.3433 19.9788 -0.578548 -13.2746 0.108977 1.02699 -7.36984 0.182063 
101.264 100.523 -5.34405 -3.16407 -3.41495 178.907 -6.27337 -30.7296 12.6273 9.80879 16.3674 -28.0344 0.0206039 -6.36364 -0.19633 -6.31166 7.6283 8.87791 -2.2218 -1.87721 -7.9461 -6.5381 -2.26139 -6.74897 0.750051 10.631 3.23038 6.21202e-017 1.98785e-016 -0 -100.089 -56.3279 -43.6508 -17.2199 8.77545 7.96674 0.368473 9.90896 -0.00117925 41.9703 7.9005 12.7415 32.9262 -48.8875 3.08478 21.2187 10.3185 -12.6864 -0.369625 9.91382 0.00119887 -7.92641 -3.20653 -14.1367 -4.32979 18.5344 19.5137 -0.422868 -14.1686 0.114795 0.914566 -8.15086 0.358896 
101.366 100.22 -7.61348 -3.1158 -3.88533 179.685 -6.02362 -29.4937 10.4417 6.71034 9.18242 -24.9971 -0.294171 -5.9284 -0.18574 -8.12144 9.021 11.0954 -2.23395 -2.05128 -8.62091 -6.71865 -3.45279 -7.45002 1.14895 11.3942 3.36404 1.73937e-016 -4.96962e-016 3.18055e-015 -97.6652 -56.0799 -42.2483 -18.3305 9.07872 6.69301 0.368473 9.90896 -0.00117925 43.944 8.2788 12.8025 29.9011 -49.7013 1.29281 21.1543 10.565 -12.6558 -0.369625 9.91382 0.00119887 -7.6858 -2.43004 -14.0701 -4.60337 18.8991 18.9981 -0.358603 -15.1246 0.111244 0.923971 -8.84278 0.443738 
101.469 99.8802 -9.94694 -2.91464 -4.25031 -179.499 -4.97627 -28.9463 7.78886 3.27405 4.13787 -20.621 -0.638794 -6.54358 -0.21452 -11.1829 14.1253 15.6373 -2.27544 -2.45042 -9.11902 -6.75356 -4.39229 -7.9687 1.44939 12.2847 3.10831 9.93923e-016 1.98785e-016 6.36111e-015 -95.5915 -55.6423 -40.9627 -19.3929 9.39045 5.54095 0.368473 9.90896 -0.00117925 45.7625 8.54218 12.6853 26.6763 -50.3571 -0.682959 21.1005 10.7539 -12.6309 -0.369625 9.91382 0.00119887 -7.25694 -1.61312 -13.6206 -4.82269 19.5258 18.274 -0.523242 -16.2127 0.0818588 1.1321 -9.2616 0.359567 
101.57 99.5382 -12.2975 -2.75103 -4.49762 -178.748 -3.96956 -28.6634 5.79591 0.868846 0.564485 -17.0188 -0.776559 -7.45246 -0.242385 -14.4652 19.0393 19.9429 -2.33514 -2.78537 -9.49466 -6.72799 -5.16695 -8.36654 1.65386 13.0655 2.70688 -1.09332e-015 0 -0 -93.774 -55.118 -39.7624 -20.4029 9.71068 4.40721 0.368473 9.90896 -0.00117925 47.2352 8.71934 12.5171 23.8263 -50.9901 -2.47661 20.9521 10.9383 -12.5722 -0.369625 9.91382 0.00119887 -6.82186 -0.705445 -13.0196 -5.04632 20.2176 17.4802 -0.72498 -16.9364 0.049163 1.46958 -9.86368 0.218179 
101.657 99.2328 -14.5854 -2.87894 -4.53104 -178.098 -3.92615 -28.4571 6.12723 0.233461 -1.36741 -17.239 -0.143129 -8.66733 -0.229253 -14.4799 22.0788 20.5421 -2.47469 -2.69308 -9.7861 -6.75641 -5.83569 -8.66774 1.77096 13.4499 2.29306 -1.98785e-016 0 3.18055e-015 -92.5053 -54.5379 -39.0904 -21.179 9.96956 3.43652 0.368473 9.90896 -0.00117925 48.0978 8.79804 12.3779 22.0257 -51.6874 -3.71832 20.6228 11.1417 -12.448 -0.369625 9.91382 0.00119887 -6.63023 0.442786 -12.4595 -5.30286 20.7082 16.7322 -0.766645 -16.5424 0.0376274 1.86385 -11.2967 0.159232 
101.749 98.9391 -16.925 -3.03045 -4.50413 -177.702 -4.08083 -28.4716 7.34361 0.38842 -1.6212 -18.6104 0.391421 -8.72876 -0.204088 -12.8138 21.1449 18.7188 -2.51417 -2.58387 -9.92827 -6.70025 -6.28212 -8.84295 1.68317 13.6744 1.93241 -9.93923e-016 -3.97569e-016 -3.18055e-015 -91.1504 -53.9867 -38.0434 -22.0412 10.3269 2.17532 0.368473 9.90896 -0.00117925 48.5674 8.8389 12.299 20.7498 -52.5025 -4.58428 20.1412 11.374 -12.2677 -0.369625 9.91382 0.00119887 -6.39655 1.62156 -11.8201 -5.63079 21.2855 15.9489 -0.79384 -15.8715 0.0271044 2.40539 -12.8028 0.0226896 
101.87 98.6002 -19.455 -3.05621 -4.63567 -177.811 -3.94917 -28.9079 8.68836 1.40943 0.0912063 -19.6414 -0.18191 -5.67742 -0.191531 -11.5216 9.67775 14.6503 -2.28623 -2.85711 -9.92138 -6.49616 -6.45181 -8.93019 1.1928 13.9289 1.94321 -9.93923e-016 -7.95139e-016 3.18055e-015 -88.6875 -53.6057 -35.2111 -23.4208 11.0445 -0.241316 0.368473 9.90896 -0.00117925 48.7644 8.94944 12.4318 19.6985 -53.6277 -5.06136 19.4257 11.695 -11.9992 -0.369625 9.91382 0.00119887 -5.95004 2.60008 -10.9338 -6.03918 22.2078 14.9348 -0.883478 -15.8324 0.00124844 3.12522 -13.7197 -0.305089 
101.993 98.3527 -22.0219 -2.83143 -4.63363 -178.163 -3.43818 -29.3248 9.85967 2.6307 2.54542 -20.2082 -0.89526 -1.02536 -0.167681 -11.7669 -2.52053 11.4819 -1.83307 -3.17939 -9.60928 -6.04025 -6.21669 -8.75141 0.556414 14.0693 1.70046 3.97569e-016 -7.95139e-016 -0 -86.7542 -53.0464 -32.6663 -24.6798 11.7129 -2.45695 0.368473 9.90896 -0.00117925 48.7164 8.97709 12.4956 18.8563 -54.7009 -5.36155 18.7187 11.9788 -11.7347 -0.369625 9.91382 0.00119887 -5.18556 3.58662 -10.1223 -6.58145 23.3091 14.1368 -1.04699 -15.4673 -0.0275923 4.10851 -14.4062 -0.829181 
102.083 98.359 -24.4868 -2.02958 -4.19837 -178.545 -2.14908 -29.235 9.59105 2.75537 4.30344 -18.9987 -0.884545 5.50855 -0.100962 -11.6535 -4.8201 10.669 -1.07025 -3.31254 -8.7045 -5.10294 -5.30502 -8.02896 -0.0161023 13.9554 0.405061 -1.19271e-015 -2.38542e-015 3.18055e-015 -87.0067 -52.0201 -32.5521 -25.3472 11.9676 -3.04543 0.368473 9.90896 -0.00117925 48.4518 8.74545 12.1681 17.9869 -55.2683 -5.85571 18.3468 12.0715 -11.5966 -0.369625 9.91382 0.00119887 -3.77997 4.86018 -9.73993 -7.3682 24.3506 13.9639 -1.29157 -13.9562 -0.0555803 5.00688 -15.0168 -1.29868 
102.177 98.485 -26.9445 -1.07878 -3.56975 -179.056 -0.698794 -29.0669 9.93102 3.04353 6.54242 -17.9507 -0.869862 10.5041 -0.0352033 -10.7261 -3.27516 10.1954 -0.206662 -3.36827 -7.59885 -4.0777 -4.07906 -7.11568 -0.585599 13.7468 -1.10167 -3.97569e-016 7.95139e-016 -0 -87.9873 -51.0627 -33.0702 -25.7092 12.049 -3.01205 0.368473 9.90896 -0.00117925 48.0845 8.43242 11.7271 17.4148 -55.7753 -6.07385 17.9893 12.1148 -11.4639 -0.369625 9.91382 0.00119887 -2.15793 5.97041 -9.53157 -8.40497 25.8015 14.3981 -1.70237 -11.7939 -0.0724745 7.14911 -15.4965 -2.59607 
102.302 98.6571 -29.4714 -0.354878 -2.84911 -179.786 0.304164 -29.1934 13.6915 5.20812 10.3544 -19.5178 -1.41805 9.18033 -0.0103601 -8.42568 -0.181387 8.74912 0.561233 -3.39382 -6.59407 -3.28286 -2.78197 -6.26337 -1.17725 13.5816 -2.1565 -7.95139e-016 0 -3.18055e-015 -88.7644 -50.582 -33.0479 -25.9353 12.0906 -2.95671 0.368473 9.90896 -0.00117925 47.8346 8.18497 11.3612 17.358 -56.654 -5.54582 17.3415 12.2331 -11.2219 -0.369625 9.91382 0.00119887 -0.696288 6.65745 -9.48794 -9.92706 28.0139 15.8782 -2.44542 -9.57399 -0.0919906 11.8464 -15.4944 -5.72531 
102.452 98.8554 -31.9848 0.311386 -2.15275 179.447 1.29821 -29.0418 17.3259 7.69143 14.2018 -21.1392 -2.03034 5.90029 -0.0108019 -5.93358 3.13662 7.34493 1.2701 -3.34692 -5.67413 -2.61627 -1.51974 -5.47703 -1.6374 13.429 -3.03643 9.93923e-017 -1.19271e-015 -1.59028e-015 -89.8034 -50.4856 -33.0019 -25.7762 12.0064 -2.69474 0.368473 9.90896 -0.00117925 47.4286 7.92515 11.0115 17.9865 -57.49 -4.57545 16.675 12.3247 -10.9732 -0.369625 9.91382 0.00119887 0.763787 6.63188 -9.20826 -11.6367 31.0004 17.6375 -3.29732 -6.18128 -0.0411142 18.7359 -15.9065 -10.0856 
102.65 99.0319 -34.4478 0.922896 -1.67271 178.775 2.53672 -28.3927 17.4107 8.37361 17.0375 -20.1487 -2.32361 3.78184 -0.0370683 -4.91402 4.01712 6.61636 1.81687 -3.19782 -4.95002 -2.06106 -0.577736 -4.87755 -1.80852 13.3351 -3.72616 -4.96962e-017 7.95139e-016 -1.59028e-015 -91.2032 -50.906 -32.9087 -24.9669 11.7459 -2.32625 0.368473 9.90896 -0.00117925 46.5434 7.61422 10.7024 19.6795 -58.0719 -3.31593 16.099 12.334 -10.7586 -0.369625 9.91382 0.00119887 2.3662 5.35836 -8.12727 -13.0765 35.0853 19.2184 -4.22776 0.197267 0.200905 30.0672 -19.2263 -16.6842 
102.848 99.1974 -36.8 1.54062 -1.28512 178.247 3.70715 -27.48 16.3583 8.4358 19.2773 -18.5299 -2.55966 1.77922 -0.0769674 -4.49437 3.99945 6.17159 2.42128 -2.95783 -4.3428 -1.60271 0.330963 -4.35916 -1.72765 13.2006 -4.4393 4.96962e-017 0 3.18055e-015 -93.1108 -51.584 -33.2234 -23.705 11.3318 -1.60083 0.368473 9.90896 -0.00117925 45.5439 7.28103 10.3736 21.8339 -58.2117 -1.9042 15.8018 12.2475 -10.6494 -0.369625 9.91382 0.00119887 3.91031 3.29018 -6.76456 -14.5569 39.9006 20.1281 -4.95942 6.87432 0.474979 38.0378 -19.9512 -22.0964 
103.002 99.3205 -38.9225 2.29432 -0.860388 178.01 4.52062 -26.3632 15.3231 8.8235 20.9061 -17.5028 -2.90874 -0.161838 -0.118321 -4.21076 3.78882 5.83839 3.37722 -2.54965 -3.79515 -1.27637 1.55421 -3.82282 -1.25287 12.8871 -5.51072 -6.21202e-018 7.45443e-017 -0 -96.2232 -52.2688 -34.9049 -21.8612 10.6998 -0.243386 0.368473 9.90896 -0.00117925 44.7255 6.9049 9.88734 23.9987 -57.4796 -0.564042 16.1378 12.0019 -10.7803 -0.369625 9.91382 0.00119887 5.15669 0.719514 -5.2894 -15.6813 45.5394 18.2505 -5.00358 11.5367 0.658599 34.2126 -11.4596 -21.2869 
